<svg id="visual" viewBox="0 0 900 600" width="900" height="600" xmlns="http://www.w3.org/2000/svg" xmlns:xlink="http://www.w3.org/1999/xlink" version="1.1"><rect x="0" y="0" width="900" height="600" fill="#f9f9f9"></rect><defs><linearGradient id="grad1_0" x1="33.3%" y1="0%" x2="100%" y2="100%"><stop offset="20%" stop-color="#f9f9f9" stop-opacity="1"></stop><stop offset="80%" stop-color="#f9f9f9" stop-opacity="1"></stop></linearGradient></defs><defs><linearGradient id="grad2_0" x1="0%" y1="0%" x2="66.7%" y2="100%"><stop offset="20%" stop-color="#f9f9f9" stop-opacity="1"></stop><stop offset="80%" stop-color="#f9f9f9" stop-opacity="1"></stop></linearGradient></defs><g transform="translate(900, 0)"><path d="M0 486.7C-59.3 470.7 -118.5 454.6 -179.9 434.2C-241.2 413.8 -304.6 389 -344.2 344.2C-383.8 299.3 -399.6 234.4 -419.4 173.7C-439.2 113 -463 56.5 -486.7 0L0 0Z" fill="#739494"></path></g><g transform="translate(0, 600)"><path d="M0 -486.7C52.3 -452.6 104.6 -418.5 165.7 -400C226.8 -381.5 296.6 -378.7 344.2 -344.2C391.7 -309.7 417 -243.6 437 -181C457 -118.4 471.9 -59.2 486.7 0L0 0Z" fill="#739494"></path></g></svg>