<svg id="visual" viewBox="0 0 900 600" width="900" height="600" xmlns="http://www.w3.org/2000/svg" xmlns:xlink="http://www.w3.org/1999/xlink" version="1.1"><rect width="900" height="600" fill="#f9f9f9"></rect><g><g transform="translate(760 111)"><path d="M93.4 -33.7C105.5 6.7 88.9 53.1 57.3 75.1C25.8 97.1 -20.7 94.8 -54.2 71.2C-87.8 47.7 -108.3 2.9 -97.1 -36.3C-85.9 -75.6 -43 -109.3 -1.1 -108.9C40.7 -108.6 81.4 -74.1 93.4 -33.7Z" stroke="#d1e8e8" fill="none" stroke-width="13"></path></g><g transform="translate(227 414)"><path d="M72.5 -22.6C81.2 3.4 66.9 37.8 41.1 56.6C15.4 75.3 -21.8 78.2 -46.5 61C-71.2 43.8 -83.4 6.3 -73.6 -21.1C-63.7 -48.6 -31.9 -66.1 0 -66.1C31.9 -66.1 63.7 -48.6 72.5 -22.6Z" stroke="#d1e8e8" fill="none" stroke-width="13"></path></g><g transform="translate(288 31)"><path d="M47.4 -16.5C53.4 3.3 44.9 26.7 28 39.1C11.1 51.6 -14.3 53.1 -32.7 40.7C-51.1 28.3 -62.6 2.1 -55.9 -18.4C-49.3 -39 -24.7 -53.9 -2 -53.2C20.6 -52.6 41.3 -36.4 47.4 -16.5Z" stroke="#d1e8e8" fill="none" stroke-width="13"></path></g><g transform="translate(609 539)"><path d="M67.9 -23.5C78 9 69.3 46.2 44 65.8C18.7 85.4 -23.1 87.4 -50.7 67.8C-78.4 48.2 -91.8 7 -81 -26.5C-70.2 -60 -35.1 -85.9 -3.1 -84.9C28.9 -83.9 57.8 -56 67.9 -23.5Z" stroke="#d1e8e8" fill="none" stroke-width="13"></path></g></g></svg>