<svg id="visual" viewBox="0 0 900 600" width="900" height="600" xmlns="http://www.w3.org/2000/svg" xmlns:xlink="http://www.w3.org/1999/xlink" version="1.1"><rect x="0" y="0" width="900" height="600" fill="#EAF4F4"></rect><defs><linearGradient id="grad1_0" x1="33.3%" y1="100%" x2="100%" y2="0%"><stop offset="20%" stop-color="#eaf4f4" stop-opacity="1"></stop><stop offset="80%" stop-color="#eaf4f4" stop-opacity="1"></stop></linearGradient></defs><defs><linearGradient id="grad2_0" x1="0%" y1="100%" x2="66.7%" y2="0%"><stop offset="20%" stop-color="#eaf4f4" stop-opacity="1"></stop><stop offset="80%" stop-color="#eaf4f4" stop-opacity="1"></stop></linearGradient></defs><g transform="translate(900, 600)"><path d="M-486.7 0C-485.1 -68.7 -483.5 -137.5 -449.7 -186.3C-415.9 -235.1 -349.8 -263.9 -300.5 -300.5C-251.2 -337.1 -218.7 -381.6 -171.4 -413.9C-124.2 -446.2 -62.1 -466.5 0 -486.7L0 0Z" fill="#cfe3e3"></path></g><g transform="translate(0, 0)"><path d="M486.7 0C488 71 489.3 142 449.7 186.3C410.1 230.5 329.5 248 277.2 277.2C224.8 306.4 200.7 347.4 159.2 384.3C117.7 421.2 58.8 454 0 486.7L0 0Z" fill="#cfe3e3"></path></g></svg>